<!DOCTYPE svg PUBLIC "-//W3C//DTD SVG 1.1//EN" "http://www.w3.org/Graphics/SVG/1.1/DTD/svg11.dtd">

<!-- Uploaded to: SVG Repo, www.svgrepo.com, Transformed by: SVG Repo Mixer Tools -->
<svg fill="#000000" width="256px" height="256px" viewBox="-2.4 -2.4 28.80 28.80" id="carpet-4" data-name="Line Color" xmlns="http://www.w3.org/2000/svg" class="icon line-color" transform="rotate(0)">

<g id="SVGRepo_bgCarrier" stroke-width="0"/>

<g id="SVGRepo_tracerCarrier" stroke-linecap="round" stroke-linejoin="round" stroke="#CCCCCC" stroke-width="0.048"/>

<g id="SVGRepo_iconCarrier">

<rect id="secondary" x="9" y="10" width="8" height="6" style="fill: none; stroke: #da0063; stroke-linecap: round; stroke-linejoin: round; stroke-width:0.984;"/>

<path id="primary" d="M19,20H6a1,1,0,0,1-1-1V7A1,1,0,0,1,6,6H17" style="fill: none; stroke: #000000; stroke-linecap: round; stroke-linejoin: round; stroke-width:0.984;"/>

<path id="primary-2" data-name="primary" d="M19,4a2,2,0,0,1,2,2V18a2,2,0,0,1-4,0V6A2,2,0,0,1,19,4ZM17,18a2,2,0,1,0,2-2A2,2,0,0,0,17,18ZM5,9H3m2,4H3m2,4H3" style="fill: none; stroke: #000000; stroke-linecap: round; stroke-linejoin: round; stroke-width:0.984;"/>

</g>

</svg>