<!DOCTYPE svg PUBLIC "-//W3C//DTD SVG 1.1//EN" "http://www.w3.org/Graphics/SVG/1.1/DTD/svg11.dtd">

<!-- Uploaded to: SVG Repo, www.svgrepo.com, Transformed by: SVG Repo Mixer Tools -->
<svg fill="#e0e0e0" height="800px" width="800px" version="1.1" id="Capa_1" xmlns="http://www.w3.org/2000/svg" xmlns:xlink="http://www.w3.org/1999/xlink" viewBox="0 0 495.716 495.716" xml:space="preserve" stroke="#e0e0e0">

<g id="SVGRepo_bgCarrier" stroke-width="0"/>

<g id="SVGRepo_tracerCarrier" stroke-linecap="round" stroke-linejoin="round"/>

<g id="SVGRepo_iconCarrier"> <g> <path d="M161.485,114.693c9,7.293,20.592,10.999,34.477,10.999c30.108,0,54.603-24.494,54.603-54.603 c0-14.326-4.701-26.481-13.951-36.212c1.638-2.189,2.546-4.432,2.765-6.774c0.742-7.946-6.835-13.884-12.599-17.659 C216.196,3.514,204.739,0,192.725,0c-7.077,0-14.357,1.237-21.635,3.678c-12.435,4.168-28.65,14.683-36.868,31.695 c-6.606,13.678-6.944,28.931-1.003,45.335C141.617,103.894,158.276,113.102,161.485,114.693z M240.696,82.229h-11.573 c-10.035,0-18.198,8.164-18.198,18.199v5.404c0,2.348,1.903,4.25,4.25,4.25c2.347,0,4.25-1.902,4.25-4.25v-5.404 c0-5.349,4.351-9.699,9.698-9.699h8.538c-1.247,2.637-2.739,5.136-4.442,7.471h-6.339c-2.347,0-4.25,1.902-4.25,4.25 c0,1.862,1.205,3.428,2.872,4.002c-8.006,6.699-18.309,10.741-29.54,10.741c-10.558,0-19.47-2.416-26.552-7.188 c3.467-8.435-0.636-20.944-1.637-23.735c-0.446-1.243-1.444-2.208-2.701-2.611c-3.552-1.142-5.938-4.417-5.938-8.152 c0-4.719,3.839-8.559,8.559-8.559c4.72,0,8.559,3.84,8.559,8.559v18.993c0,2.348,1.903,4.25,4.25,4.25h12.368 c2.237,0,4.092-1.735,4.241-3.968c0.102-1.534-0.136-3.432-0.464-6.058c-1.858-14.841-2.23-31.343,16.994-39.328 c7.142-2.966,12.664-5.84,16.749-8.737c7.841,8.189,11.676,18.175,11.676,30.432C242.064,74.93,241.585,78.659,240.696,82.229z M141.876,39.07c7.069-14.636,21.122-23.716,31.916-27.334c6.406-2.148,12.776-3.236,18.933-3.236 c10.331,0,20.222,3.047,29.397,9.056c5.897,3.861,9.02,7.327,8.793,9.758c-0.167,1.784-2.501,6.741-20.536,14.232 c-26.812,11.138-23.557,37.133-22.167,48.234c0.02,0.156,0.039,0.313,0.059,0.469h-3.519V75.506 c0-9.406-7.653-17.059-17.059-17.059c-9.406,0-17.059,7.652-17.059,17.059c0,6.673,3.826,12.611,9.721,15.407 c1.368,4.505,2.388,10.457,1.686,14.246c-5.252-3.503-15.211-11.835-20.829-27.346C136.08,63.644,136.304,50.608,141.876,39.07z"/> <path d="M476.311,430.866H424.78l-94.4-194.446c-0.081-0.494-0.171-0.988-0.28-1.48c-1.54-7.003-5.714-12.986-11.753-16.848 l-81.083-51.856c-8.212-24.036-27.597-38.505-48.392-38.505h-7.532c-24.143,0-42.837,21.113-44.452,50.202 c-0.578,10.414-0.848,26.444-0.933,44.357l-5.671-6.305c-0.627-0.697-1.467-1.168-2.389-1.338 c-7.728-1.423-15.173,3.701-16.601,11.427l-4.424,23.971c-0.691,3.742,0.117,7.531,2.275,10.666 c2.158,3.136,5.408,5.243,9.151,5.934c0.256,0.047,0.514,0.07,0.771,0.07c0.691,0,1.377-0.169,1.994-0.497l3.675-1.952 l-12.885,31.535c-0.465,1.138-0.414,2.42,0.138,3.517c0.552,1.098,1.553,1.902,2.743,2.207l21.72,5.558 c0.219,16.577,0.423,27.856,0.43,28.218c0.043,2.316,1.933,4.172,4.25,4.172h12.466v9.619 c-21.472-12.3-46.147-19.537-67.284-19.537c-46.268,0-81.159,37.328-81.159,86.828c0,10.774,3.87,20.022,11.502,27.487 c20.087,19.644,60.189,20.668,68.273,20.668c0.751,0,1.227-0.009,1.383-0.013h67.313c0.608,17.301,14.863,31.19,32.31,31.19 c17.832,0,32.339-14.507,32.339-32.339v-28.701c5.821-1.415,19.366-5.544,33.199-15.72c16.572-12.19,36.628-35.681,38.062-78.364 c1.816-54.029,10.607-69.619,13.215-73.087c0.371,0.016,0.74,0.04,1.112,0.04c0,0,0,0,0,0c1.335,0,2.651-0.108,3.946-0.298 l80.523,163.619h-6.363c-7.857,0-14.25,6.393-14.25,14.25v4.666c0,7.857,6.393,14.25,14.25,14.25h94.34 c7.857,0,14.25-6.393,14.25-14.25v-4.666C490.561,437.259,484.168,430.866,476.311,430.866z M224.637,158.16l-17.847-11.414 c-1.211-0.774-2.477-1.435-3.779-2.002l-2.293-6.42C210.217,141.667,218.854,148.803,224.637,158.16z M145.376,178.403 c1.377-24.831,16.166-42.173,35.964-42.173h7.532c0.7,0,1.4,0.03,2.099,0.074l2.228,6.239c-0.283-0.009-0.564-0.03-0.848-0.03 c-9.213,0-17.674,4.629-22.633,12.382c-7.973,12.469-4.317,29.099,8.15,37.072l24.739,15.822 c-0.776,18.019-15.673,32.441-33.88,32.441h-24.304C144.394,215.544,144.617,192.064,145.376,178.403z M118.59,257.906 c-0.979-0.424-1.823-1.114-2.443-2.015c-0.871-1.266-1.197-2.793-0.918-4.304l4.424-23.971c0.497-2.691,2.804-4.6,5.432-4.702 l10.838,12.052c-0.002,4.531,0.006,9.123,0.021,13.723L118.59,257.906z M121.565,294.5l14.425-35.306 c0.077,13.841,0.21,27.367,0.351,39.087L121.565,294.5z M144.442,248.73h24.285c21.143,0,38.718-15.549,41.901-35.812 l23.612,15.101l3.89,34.914h-15.661c-2.347,0-4.25,1.902-4.25,4.25c0,2.348,1.903,4.25,4.25,4.25h16.608l1.133,10.166h-58.407 c-2.347,0-4.25,1.902-4.25,4.25c0,2.348,1.903,4.25,4.25,4.25h59.354l4.554,40.873H145.309 C145.109,319.084,144.558,283.685,144.442,248.73z M218.276,339.473h32.186c1.209,0,2.361-0.515,3.167-1.416 c0.806-0.901,1.19-2.103,1.056-3.305l-11.237-100.843l31.508,20.15c-5.265,7.52-14.446,26.872-15.249,70.979 c-0.518,28.462-8.564,50.187-23.269,62.825c-6.957,5.979-13.937,8.658-18.163,9.824V339.473z M170.886,339.473v31.045 c0,2.348,1.903,4.25,4.25,4.25c2.347,0,4.25-1.902,4.25-4.25v-31.045h30.39v104.426h-47.678V339.473H170.886z M82.064,338.184 v46.711H19.35C29.667,358.115,53.099,339.818,82.064,338.184z M86.222,456.026c-0.441,0.019-44.25,0.726-63.631-18.243 c-6.012-5.885-8.935-12.885-8.935-21.4c0-1.232,0.033-2.453,0.08-3.669h71.514c2.347,0,4.25-1.902,4.25-4.25 c0-2.348-1.903-4.25-4.25-4.25H14.453c0.493-3.714,1.223-7.321,2.151-10.819h69.71c2.347,0,4.25-1.902,4.25-4.25V338.16 c20.16,0.955,43.272,8.574,63.034,20.822v23.217h-23.975c-2.347,0-4.25,1.902-4.25,4.25c0,2.348,1.903,4.25,4.25,4.25h23.975 v65.326L86.222,456.026z M185.937,487.216c-13.145,0-23.839-10.694-23.839-23.839v-10.978h47.678v10.978 C209.776,476.522,199.082,487.216,185.937,487.216z M281.042,340.307c-1.055,31.386-12.599,55.472-34.312,71.587 c-11.251,8.351-22.496,12.316-28.455,13.983V406.45c4.746-1.04,13.971-3.939,23.252-11.756 c11.774-9.917,25.96-30.024,26.679-69.501c0.785-43.193,10.019-60.892,13.968-66.517l7.25,4.637 c1.413,0.903,2.901,1.652,4.436,2.273C289.102,274.103,282.596,294.076,281.042,340.307z M303.865,259.045 c-3.492,0-6.902-1-9.86-2.893l-111.556-71.345c-8.52-5.448-11.018-16.813-5.57-25.332c3.389-5.299,9.173-8.462,15.472-8.462 c3.492,0,6.901,1.001,9.86,2.893l111.557,71.347c4.126,2.639,6.978,6.727,8.031,11.511c1.052,4.785,0.178,9.692-2.462,13.819 C315.947,255.882,310.164,259.045,303.865,259.045z M316.007,264.651c4.21-2.129,7.85-5.36,10.49-9.488 c0.71-1.109,1.33-2.259,1.864-3.437l86.97,179.14h-17.523L316.007,264.651z M482.061,449.782c0,3.171-2.58,5.75-5.75,5.75h-94.34 c-3.17,0-5.75-2.579-5.75-5.75v-4.666c0-3.171,2.58-5.75,5.75-5.75h94.34c3.17,0,5.75,2.579,5.75,5.75V449.782z"/> <path d="M346.238,455.211H307.24c-2.347,0-4.25,1.902-4.25,4.25c0,2.348,1.903,4.25,4.25,4.25h38.998c2.347,0,4.25-1.902,4.25-4.25 C350.488,457.113,348.585,455.211,346.238,455.211z"/> <path d="M319.239,441.213c2.347,0,4.25-1.902,4.25-4.25c0-2.348-1.903-4.25-4.25-4.25h-58.497c-2.347,0-4.25,1.902-4.25,4.25 c0,2.348,1.903,4.25,4.25,4.25H319.239z"/> <path d="M266.742,461.211h-14.999c-2.347,0-4.25,1.902-4.25,4.25c0,2.348,1.903,4.25,4.25,4.25h14.999 c2.347,0,4.25-1.902,4.25-4.25C270.992,463.113,269.089,461.211,266.742,461.211z"/> </g> </g>

</svg>