<?xml version="1.0"?>
<svg xmlns="http://www.w3.org/2000/svg" viewBox="0 0 50 50" enable-background="new 0 0 50 50">
    <path style="text-indent:0;text-align:start;line-height:normal;text-transform:none;block-progression:tb;-inkscape-font-specification:Bitstream Vera Sans" d="M 17 0 C 15.354545 0 14 1.3545455 14 3 C 14 4.2923674 14.844157 5.3943838 16 5.8125 L 16 12 C 16 12.6 16.4 13 17 13 C 17.6 13 18 12.6 18 12 L 18 6 L 19 6 L 19 12 C 19 12.6 19.4 13 20 13 C 20.6 13 21 12.6 21 12 L 21 6 L 22 6 L 22 12 C 22 12.6 22.4 13 23 13 C 23.6 13 24 12.6 24 12 L 24 6 L 25 6 L 25 12 C 25 12.6 25.4 13 26 13 C 26.6 13 27 12.6 27 12 L 27 6 L 28 6 L 28 12 C 28 12.6 28.4 13 29 13 C 29.6 13 30 12.6 30 12 L 30 6 L 31 6 L 31 12 C 31 12.6 31.4 13 32 13 C 32.6 13 33 12.6 33 12 L 33 6 L 34 6 C 34.818215 6 35.515227 5.5872749 36.0625 5 L 42.5 5 C 43.883333 5 45 3.8833333 45 2.5 C 45 1.1166667 43.883333 0 42.5 0 L 17 0 z M 17 2 L 42.5 2 C 42.716667 2 43 2.2833333 43 2.5 C 43 2.7166667 42.716667 3 42.5 3 L 35.6875 3 L 35.09375 3 L 34.8125 3.5625 C 34.711262 3.7649768 34.319048 4 34 4 L 17 4 C 16.445455 4 16 3.5545455 16 3 C 16 2.4454545 16.445455 2 17 2 z M 3 8 C 2.3159091 8 1.7853217 8.4004478 1.4375 8.84375 C 1.0896783 9.2870522 0.83023969 9.8217809 0.625 10.4375 C 0.21452061 11.668938 0 13.259091 0 15 C 0 16.740909 0.21452061 18.331062 0.625 19.5625 C 0.83023969 20.178219 1.0896783 20.712948 1.4375 21.15625 C 1.7853217 21.599552 2.3159091 22 3 22 L 4 22 L 4 39 L 4 40 L 5 40 L 45 40 L 46 40 L 46 39 L 46 22 L 47 22 C 47.684091 22 48.214678 21.599552 48.5625 21.15625 C 48.910322 20.712948 49.16976 20.178219 49.375 19.5625 C 49.785479 18.331062 50 16.740909 50 15 C 50 13.259091 49.785479 11.668938 49.375 10.4375 C 49.16976 9.8217809 48.910322 9.2870522 48.5625 8.84375 C 48.214678 8.4004478 47.684091 8 47 8 L 35 8 L 35 10 L 46.90625 10 C 46.906723 10.002678 46.934849 10.010713 47 10.09375 C 47.130303 10.259823 47.31149 10.621969 47.46875 11.09375 C 47.783271 12.037312 48 13.440909 48 15 C 48 16.559091 47.783271 17.962688 47.46875 18.90625 C 47.31149 19.378031 47.130303 19.740177 47 19.90625 C 46.934849 19.989286 46.906723 19.997322 46.90625 20 L 18.1875 20 A 1.0001 1.0001 0 0 0 17.8125 20 L 11.1875 20 A 1.0001 1.0001 0 0 0 10.78125 20 L 5.1875 20 A 1.0001 1.0001 0 0 0 4.78125 20 L 3.09375 20 C 3.0932766 19.997321 3.0651516 19.989285 3 19.90625 C 2.8696967 19.740177 2.6885103 19.378031 2.53125 18.90625 C 2.2167294 17.962688 2 16.559091 2 15 C 2 13.440909 2.2167294 12.037312 2.53125 11.09375 C 2.6885103 10.621969 2.8696967 10.259823 3 10.09375 C 3.0651516 10.010714 3.0932765 10.002678 3.09375 10 L 14 10 L 14 8 L 3 8 z M 6 22 L 10 22 L 10 33 A 1.0001 1.0001 0 0 0 11 34 L 39 34 A 1.0001 1.0001 0 0 0 40 33 L 40 22 L 44 22 L 44 38 L 6 38 L 6 22 z M 12 22 L 17.5625 22 L 24.28125 28.71875 A 1.0001 1.0001 0 0 0 25.71875 28.71875 L 32.4375 22 L 38 22 L 38 32 L 12 32 L 12 22 z M 20.4375 22 L 29.5625 22 L 25 26.5625 L 20.4375 22 z M 4 41 L 4 43 C 4 43.6 4.4 44 5 44 C 5.6 44 6 43.6 6 43 L 6 41 L 4 41 z M 8 41 L 8 43 C 8 43.6 8.4 44 9 44 C 9.6 44 10 43.6 10 43 L 10 41 L 8 41 z M 12 41 L 12 43 C 12 43.6 12.4 44 13 44 C 13.6 44 14 43.6 14 43 L 14 41 L 12 41 z M 16 41 L 16 43 C 16 43.6 16.4 44 17 44 C 17.6 44 18 43.6 18 43 L 18 41 L 16 41 z M 20 41 L 20 43 C 20 43.6 20.4 44 21 44 C 21.6 44 22 43.6 22 43 L 22 41 L 20 41 z M 24 41 L 24 43 C 24 43.6 24.4 44 25 44 C 25.6 44 26 43.6 26 43 L 26 41 L 24 41 z M 28 41 L 28 43 C 28 43.6 28.4 44 29 44 C 29.6 44 30 43.6 30 43 L 30 41 L 28 41 z M 32 41 L 32 43 C 32 43.6 32.4 44 33 44 C 33.6 44 34 43.6 34 43 L 34 41 L 32 41 z M 36 41 L 36 43 C 36 43.6 36.4 44 37 44 C 37.6 44 38 43.6 38 43 L 38 41 L 36 41 z M 40 41 L 40 43 C 40 43.6 40.4 44 41 44 C 41.6 44 42 43.6 42 43 L 42 41 L 40 41 z M 44 41 L 44 43 C 44 43.6 44.4 44 45 44 C 45.6 44 46 43.6 46 43 L 46 41 L 44 41 z" overflow="visible" enable-background="accumulate" font-family="Bitstream Vera Sans"/>
</svg>
