<?xml version="1.0" encoding="iso-8859-1"?>
<!-- Uploaded to: SVG Repo, www.svgrepo.com, Generator: SVG Repo Mixer Tools -->
<svg fill="#000000" version="1.1" id="Layer_1" xmlns="http://www.w3.org/2000/svg" xmlns:xlink="http://www.w3.org/1999/xlink" 
	 viewBox="0 0 496 496" xml:space="preserve">
<g>
	<g>
		<g>
			<path d="M456,207.867L340.72,92.587c2.064-3.888,3.28-8.192,3.28-12.72c0-7.296-2.84-14.16-8-19.312L283.312,7.867
				C273-2.445,255-2.445,244.688,7.867l-33.464,33.464c-5.568-0.88-11.232-1.464-17.048-1.464
				c-29.336,0-56.912,11.424-77.656,32.168l-31.832,31.832l38.504,38.504c-7.224,9.624-11.192,21.24-11.192,33.496
				c0,14.96,5.832,29.024,16.408,39.592c10.568,10.576,24.632,16.408,39.592,16.408c12.256,0,23.872-3.968,33.496-11.192
				L240,259.179l31.832-31.832C292.576,206.603,304,179.027,304,149.691c0-3.736-0.192-7.424-0.56-11.072l112.936,112.936
				c0.272,2.936,0.848,5.76,1.72,8.48l-0.808-0.52L315.656,415.867H248v-32h-48v32.808c-18.232,3.72-32,19.872-32,39.192v40h256v-40
				c0-20.032-14.856-36.52-34.096-39.4l80.24-131.304c15.072-5.744,25.856-20.24,25.856-37.296
				C496,225.811,478.056,207.867,456,207.867z M168,215.867c-10.68,0-20.728-4.168-28.28-11.72s-11.72-17.6-11.72-28.28
				c0-7.96,2.328-15.568,6.632-22.056l55.416,55.416C183.568,213.539,175.96,215.867,168,215.867z M260.52,216.035l-0.52,0.52
				l-14.344-14.344l-11.312,11.312l14.344,14.344L240,236.555L107.312,103.867L116,95.179l106.344,106.344l11.312-11.312
				L127.312,83.867l0.52-0.52c17.72-17.72,41.288-27.48,66.344-27.48c51.736,0,93.824,42.088,93.824,93.824
				C288,174.747,278.24,198.315,260.52,216.035z M298.096,114.459c-10.96-32.232-36.456-57.728-68.688-68.688L256,19.179
				c4.28-4.264,11.72-4.264,16,0l52.688,52.688c2.136,2.144,3.312,4.976,3.312,8s-1.176,5.856-3.312,8L298.096,114.459z
				 M311.312,123.867l19.032-19.032l107.56,107.56c-8.2,4.208-14.832,11.04-18.544,19.52L311.312,123.867z M216,399.867h16v16h-16
				V399.867z M406.528,447.867H376v16h32v16H184v-16h176v-16H185.472c3.312-9.288,12.112-16,22.528-16h176
				C394.416,431.867,403.216,438.579,406.528,447.867z M371.512,415.867h-36.768l91.776-141.192
				c6.056,6.656,14.272,11.2,23.576,12.6L371.512,415.867z M456,271.867c-13.232,0-24-10.768-24-24s10.768-24,24-24s24,10.768,24,24
				S469.232,271.867,456,271.867z"/>
			<rect y="167.867" width="48" height="16"/>
			
				<rect x="35.282" y="223.873" transform="matrix(-0.4999 -0.8661 0.8661 -0.4999 -149.7618 409.2704)" width="16" height="48.001"/>
			<rect x="88.006" y="276.561" transform="matrix(-0.8661 -0.4999 0.4999 -0.8661 28.9065 608.8671)" width="16" height="48.001"/>
			<rect x="160" y="295.867" width="16" height="48"/>
			<rect x="231.994" y="276.588" transform="matrix(0.8661 -0.4999 0.4999 0.8661 -118.124 160.2247)" width="16" height="48.001"/>
			<rect x="19.285" y="95.876" transform="matrix(-0.866 -0.5 0.5 -0.866 28.8298 215.4763)" width="47.999" height="16"/>
		</g>
	</g>
</g>
</svg>