<?xml version="1.0" encoding="iso-8859-1"?>
<!-- Uploaded to: SVG Repo, www.svgrepo.com, Generator: SVG Repo Mixer Tools -->
<svg fill="#000000" version="1.1" id="Layer_1" xmlns="http://www.w3.org/2000/svg" xmlns:xlink="http://www.w3.org/1999/xlink" 
	 viewBox="0 0 496 496" xml:space="preserve">
<g>
	<g>
		<g>
			<path d="M96,384h64c8.824,0,16-7.176,16-16v-32H80v32C80,376.824,87.176,384,96,384z M96,352h64l0.008,16H96V352z"/>
			<rect x="208" y="272" width="16" height="16"/>
			<rect x="144" y="272" width="48" height="16"/>
			<path d="M358.528,240c0.896-2.512,1.472-5.184,1.472-8V80h16V0H120v80h16v152c0,2.816,0.576,5.488,1.472,8H0v80h16v152
				c0,13.232,10.768,24,24,24h176c13.232,0,24-10.768,24-24V320h16v152c0,13.232,10.768,24,24,24h176c13.232,0,24-10.768,24-24V320
				h16v-80H358.528z M136,64V16h224v48H136z M224,472c0,4.416-3.592,8-8,8H40c-4.408,0-8-3.584-8-8V320h192V472z M240,304H16v-48
				h144h80V304z M240,240h-80c-4.408,0-8-3.584-8-8V80h192v152c0,4.416-3.592,8-8,8h-80H240z M464,472c0,4.416-3.592,8-8,8H280
				c-4.408,0-8-3.584-8-8V320h192V472z M480,304H256v-48h80h144V304z"/>
			<path d="M336,384h64c8.824,0,16-7.176,16-16v-32h-96v32C320,376.824,327.176,384,336,384z M336,352h64l0.008,16H336V352z"/>
			<rect x="448" y="272" width="16" height="16"/>
			<rect x="384" y="272" width="48" height="16"/>
			<path d="M296,128V96h-96v32c0,8.824,7.176,16,16,16h64C288.824,144,296,136.824,296,128z M216,112h64l0.008,16H216V112z"/>
			<rect x="328" y="32" width="16" height="16"/>
			<rect x="264" y="32" width="48" height="16"/>
		</g>
	</g>
</g>
</svg>