<?xml version="1.0" encoding="iso-8859-1"?>
<!-- Uploaded to: SVG Repo, www.svgrepo.com, Generator: SVG Repo Mixer Tools -->
<svg fill="#000000" version="1.1" id="Layer_1" xmlns="http://www.w3.org/2000/svg" xmlns:xlink="http://www.w3.org/1999/xlink" 
	 viewBox="0 0 496 496" xml:space="preserve">
<g>
	<g>
		<g>
			<path d="M0,0v240h496V0H0z M480,224H16V16h464V224z"/>
			<path d="M65.264,203.568L67.48,208h361.048l2.208-4.432c6.176-12.416,16.424-22.656,28.832-28.832L464,172.52V67.48l-4.432-2.208
				c-12.416-6.176-22.656-16.424-28.832-28.832L428.52,32H67.48l-2.216,4.432C59.088,48.84,48.84,59.088,36.432,65.264L32,67.48
				v105.048l4.432,2.208C48.84,180.912,59.088,191.16,65.264,203.568z M418.8,48c7,12.056,17.152,22.2,29.2,29.2v85.6
				c-12.056,7-22.2,17.152-29.2,29.2H298.44c22.672-15.936,37.56-42.24,37.56-72s-14.888-56.064-37.56-72H418.8z M320,120
				c0,39.704-32.296,72-72,72c-39.704,0-72-32.296-72-72s32.296-72,72-72S320,80.296,320,120z M48,77.2
				c12.056-7,22.2-17.144,29.2-29.2h120.36C174.888,63.936,160,90.24,160,120s14.888,56.064,37.56,72H77.2
				c-7-12.056-17.144-22.2-29.2-29.2V77.2z"/>
			<path d="M240,352h16v-64H16v48H0v64h16v32H0v64h240v-48h16v-64h-16V352z M32,304h16v16h16v-16h16v16h16v-16h16v16h16v-16h16v16
				h16v-16h16v16h16v-16h16v16h16v-16h16v32H32V304z M16,352h16v16h16v-16h16v16h16v-16h16v16h16v-16h16v16h16v-16h16v16h16v-16h16
				v16h16v-16h16v32H16V352z M224,480H16v-32h16v16h16v-16h16v16h16v-16h16v16h16v-16h16v16h16v-16h16v16h16v-16h16v16h16v-16h16
				V480z M240,432H32v-32h16v16h16v-16h16v16h16v-16h16v16h16v-16h16v16h16v-16h16v16h16v-16h16v16h16v-16h16V432z"/>
			<path d="M376,256c-66.168,0-120,53.832-120,120s53.832,120,120,120s120-53.832,120-120S442.168,256,376,256z M376,480
				c-57.344,0-104-46.656-104-104s46.656-104,104-104s104,46.656,104,104S433.344,480,376,480z"/>
			<path d="M368,320h16c13.232,0,24,10.768,24,24h16c0-22.056-17.944-40-40-40v-16h-16v16c-22.056,0-40,17.944-40,40
				c0,22.056,17.944,40,40,40h16c13.232,0,24,10.768,24,24s-10.768,24-24,24h-16c-13.232,0-24-10.768-24-24h-16
				c0,22.056,17.944,40,40,40v16h16v-16c22.056,0,40-17.944,40-40c0-22.056-17.944-40-40-40h-16c-13.232,0-24-10.768-24-24
				S354.768,320,368,320z"/>
			<rect x="440" y="368" width="16" height="16"/>
			<rect x="296" y="368" width="16" height="16"/>
		</g>
	</g>
</g>
</svg>