<?xml version="1.0" encoding="iso-8859-1"?>
<!-- Uploaded to: SVG Repo, www.svgrepo.com, Generator: SVG Repo Mixer Tools -->
<svg fill="#000000" height="800px" width="800px" version="1.1" id="Layer_1" xmlns="http://www.w3.org/2000/svg" xmlns:xlink="http://www.w3.org/1999/xlink" 
	 viewBox="0 0 496 496" xml:space="preserve">
<g>
	<g>
		<path d="M423.016,67.312l-55.928-17.48L358.776,0H137.224l-8.312,49.832l-55.928,17.48C29.328,80.952,0,120.84,0,166.576V496h496
			V166.576C496,120.84,466.672,80.952,423.016,67.312z M351.704,54.92l-35.4,77.88l-54.752-30.416l84.992-78.456L351.704,54.92z
			 M275.12,367.352l17.232-7.384l3.152,21.224L248,428.688l-34.792-34.792l46.216-19.808l-6.296-14.704l-52.096,22.328l-0.528-0.528
			l9.632-65.008l70.952-32.256l8.84,59.68l-21.104,9.04L275.12,367.352z M212.928,297.336l10.016-67.616l47.12-20.192l8.584,57.936
			L212.928,297.336z M225.696,211.144L230.904,176h34.192l2.544,17.168L225.696,211.144z M268,160h-40l-18.92-25.224L248,113.152
			l38.92,21.624L268,160z M331.536,16L248,93.112L164.464,16H331.536z M149.456,23.928l84.992,78.456L179.696,132.8l-35.4-77.88
			L149.456,23.928z M480,480h-72V224h-16v256H104V224H88v256H16V166.576c0-38.696,24.824-72.456,61.752-83.992l53.896-16.84
			l40.656,89.456l22.656-12.584l20.632,27.512l-32.096,216.68L248,451.312l64.504-64.504l-32.096-216.68l20.632-27.512
			l22.656,12.584l40.664-89.456l53.896,16.84C455.176,94.128,480,127.88,480,166.576V480z"/>
	</g>
</g>
</svg>